HIERARCHY
ROOT Hips
{
	OFFSET 0.00000 0.00000 0.00000
	CHANNELS 6 Xposition Yposition Zposition Zrotation Yrotation Xrotation 
	JOINT LHipJoint
	{
		OFFSET 0 0 0
		CHANNELS 3 Zrotation Yrotation Xrotation
		JOINT LeftUpLeg
		{
			OFFSET 1.48416 -1.82041 0.59464
			CHANNELS 3 Zrotation Yrotation Xrotation
			JOINT LeftLeg
			{
				OFFSET 2.43280 -6.68407 0.00000
				CHANNELS 3 Zrotation Yrotation Xrotation
				JOINT LeftFoot
				{
					OFFSET 2.68325 -7.37216 0.00000
					CHANNELS 3 Zrotation Yrotation Xrotation
					JOINT LeftToeBase
					{
						OFFSET 0.15365 -0.42214 1.91990
						CHANNELS 3 Zrotation Yrotation Xrotation
						End Site
						{
							OFFSET 0.00000 -0.00000 0.99320
						}
					}
				}
			}
		}
	}
	JOINT RHipJoint
	{
		OFFSET 0 0 0
		CHANNELS 3 Zrotation Yrotation Xrotation
		JOINT RightUpLeg
		{
			OFFSET -1.70852 -1.82040 0.59464
			CHANNELS 3 Zrotation Yrotation Xrotation
			JOINT RightLeg
			{
				OFFSET -2.50396 -6.87957 0.00000
				CHANNELS 3 Zrotation Yrotation Xrotation
				JOINT RightFoot
				{
					OFFSET -2.67204 -7.34139 0.00000
					CHANNELS 3 Zrotation Yrotation Xrotation
					JOINT RightToeBase
					{
						OFFSET -0.17346 -0.47657 2.02009
						CHANNELS 3 Zrotation Yrotation Xrotation
						End Site
						{
							OFFSET -0.00000 -0.00000 1.04609
						}
					}
				}
			}
		}
	}
	JOINT LowerBack
	{
		OFFSET 0 0 0
		CHANNELS 3 Zrotation Yrotation Xrotation
		JOINT Spine
		{
			OFFSET -0.01022 1.99636 -0.30653
			CHANNELS 3 Zrotation Yrotation Xrotation
			JOINT Spine1
			{
				OFFSET -0.01683 2.01212 0.04808
				CHANNELS 3 Zrotation Yrotation Xrotation
				JOINT Neck
				{
					OFFSET 0 0 0
					CHANNELS 3 Zrotation Yrotation Xrotation
					JOINT Neck1
					{
						OFFSET -0.03080 1.91178 0.03911
						CHANNELS 3 Zrotation Yrotation Xrotation
						JOINT Head
						{
							OFFSET 0.10605 1.89839 -0.23433
							CHANNELS 3 Zrotation Yrotation Xrotation
							End Site
							{
								OFFSET 0.03474 1.92469 -0.08609
							}
						}
					}
				}
				JOINT LeftShoulder
				{
					OFFSET 0 0 0
					CHANNELS 3 Zrotation Yrotation Xrotation
					JOINT LeftArm
					{
						OFFSET 3.78977 1.27972 -0.24661
						CHANNELS 3 Zrotation Yrotation Xrotation
						JOINT LeftForeArm
						{
							OFFSET 5.64147 -0.00000 -0.00000
							CHANNELS 3 Zrotation Yrotation Xrotation
							JOINT LeftHand
							{
								OFFSET 2.86444 -0.00000 -0.00000
								CHANNELS 3 Zrotation Yrotation Xrotation
								JOINT LeftFingerBase
								{
									OFFSET 0 0 0
									CHANNELS 3 Zrotation Yrotation Xrotation
									JOINT LeftHandIndex1
									{
										OFFSET 0.72212 -0.00000 -0.00000
										CHANNELS 3 Zrotation Yrotation Xrotation
										End Site
										{
											OFFSET 0.58219 -0.00000 -0.00000
										}
									}
								}
								JOINT LThumb
								{
									OFFSET 0 0 0
									CHANNELS 3 Zrotation Yrotation Xrotation
									End Site
									{
										OFFSET 0.59108 -0.00000 0.59108
									}
								}
							}
						}
					}
				}
				JOINT RightShoulder
				{
					OFFSET 0 0 0
					CHANNELS 3 Zrotation Yrotation Xrotation
					JOINT RightArm
					{
						OFFSET -3.41176 1.18605 -0.57927
						CHANNELS 3 Zrotation Yrotation Xrotation
						JOINT RightForeArm
						{
							OFFSET -5.44729 -0.00000 -0.00000
							CHANNELS 3 Zrotation Yrotation Xrotation
							JOINT RightHand
							{
								OFFSET -3.08821 -0.00000 -0.00000
								CHANNELS 3 Zrotation Yrotation Xrotation
								JOINT RightFingerBase
								{
									OFFSET 0 0 0
									CHANNELS 3 Zrotation Yrotation Xrotation
									JOINT RightHandIndex1
									{
										OFFSET -0.82105 -0.00000 -0.00000
										CHANNELS 3 Zrotation Yrotation Xrotation
										End Site
										{
											OFFSET -0.66195 -0.00000 -0.00000
										}
									}
								}
								JOINT RThumb
								{
									OFFSET 0 0 0
									CHANNELS 3 Zrotation Yrotation Xrotation
									End Site
									{
										OFFSET -0.67206 -0.00000 0.67206
									}
								}
							}
						}
					}
				}
			}
		}
	}
}
MOTION
Frames: 10
Frame Time: .0083333
2.8832 17.6216 0.4064 -233.0390 90.8522 -235.6240 0.0000 0.0000 0.0000 -15.5927 0.5855 1.4696 0.4867 4.4733 12.4121 0.5247 -3.1810 -12.9654 0.0325 -1.1633 -3.1982 0.0000 0.0000 0.0000 19.8873 2.5565 0.9459 -0.9365 -6.1640 17.2610 -1.0237 3.4053 -18.2864 -0.0869 1.9016 -5.2337 1.8884 -0.7552 3.0219 -0.5984 -0.8428 -5.4569 -1.6099 -0.5070 -7.4339 -4.4505 -5.4952 -9.1418 5.6208 -7.7026 18.1421 1.8590 -3.4114 7.4676 0.0000 0.0000 0.0000 64.4107 -49.5032 -71.3841 54.5145 -54.6616 -29.8195 -0.0000 0.0000 -122.3220 -1.2923 16.3932 -0.3648 -7.1250 0.0000 -0.0000 -26.5642 44.5726 0.3025 0.0000 0.0000 0.0000 -45.6335 43.1115 -55.8283 -48.9569 52.5660 -25.3435 0.0000 -0.0000 -64.4400 9.3471 11.7406 1.9183 7.1250 -0.0000 -0.0000 24.8629 -18.5204 17.3936
2.8813 17.6220 0.4059 -233.2770 90.7986 -235.8440 0.0000 0.0000 0.0000 -15.6427 0.5362 1.4504 0.4872 4.4756 12.4187 0.5253 -3.2140 -12.9692 0.0299 -1.1156 -3.0670 0.0000 0.0000 0.0000 19.8259 2.5058 0.9275 -0.9328 -6.1521 17.2265 -1.0168 3.4472 -18.2157 -0.0732 1.7450 -4.8015 1.8723 -0.7410 3.0385 -0.6173 -0.8265 -5.4368 -1.6221 -0.4987 -7.4212 -4.4951 -5.4899 -9.1708 5.6866 -7.6991 18.1288 1.8873 -3.4067 7.4728 0.0000 -0.0000 0.0000 64.4373 -49.3355 -71.2544 54.5203 -54.6635 -29.8243 -0.0000 0.0000 -122.3560 -1.4685 16.2207 -0.4103 -7.1250 0.0000 -0.0000 -26.6394 44.3977 0.4278 0.0000 -0.0000 0.0000 -45.6278 42.9298 -55.7434 -48.9488 52.5626 -25.3370 0.0000 -0.0000 -64.4282 9.5242 11.6993 1.9485 7.1250 -0.0000 -0.0000 24.9806 -18.5540 17.4741
2.8795 17.6224 0.4053 -232.1810 90.7100 -234.7210 0.0000 0.0000 0.0000 -15.7374 0.5080 1.4511 0.4819 4.4516 12.3508 0.5242 -3.1690 -12.9597 0.0353 -1.2123 -3.3332 0.0000 0.0000 0.0000 19.7213 2.4431 0.8664 -0.9346 -6.1580 17.2436 -1.0131 3.5074 -18.1724 -0.0672 1.6724 -4.6010 1.8193 -0.7144 3.0267 -0.6568 -0.7984 -5.3969 -1.6367 -0.4828 -7.3698 -4.4956 -5.4676 -9.1526 5.7535 -7.6771 18.0203 1.9121 -3.3931 7.4355 -0.0000 -0.0000 0.0000 64.4884 -49.1347 -71.0988 54.5914 -54.6874 -29.8823 -0.0000 0.0000 -122.3480 -1.8133 15.8832 -0.4964 -7.1250 0.0000 -0.0000 -26.7864 44.0563 0.6751 -0.0000 -0.0000 0.0000 -45.6077 42.6704 -55.5217 -48.9676 52.5705 -25.3520 0.0000 -0.0000 -64.4978 9.3950 11.8528 1.9464 7.1250 -0.0000 -0.0000 24.8744 -18.4162 17.4684
2.8780 17.6240 0.4048 -229.0070 90.5870 -231.5000 0.0000 0.0000 0.0000 -15.8520 0.6611 1.3844 0.4736 4.4134 12.2428 0.5090 -3.2671 -12.7554 0.0336 -1.1835 -3.2539 0.0000 0.0000 0.0000 19.5764 2.4095 0.7779 -0.9394 -6.1733 17.2880 -1.0134 3.5594 -18.1672 -0.0715 1.7246 -4.7452 1.6893 -0.7131 3.0084 -0.6848 -0.8077 -5.3844 -1.5924 -0.4807 -7.3441 -4.4576 -5.4658 -9.0620 5.7073 -7.6708 17.9380 1.8941 -3.3951 7.3887 0.0000 0.0000 0.0000 64.4288 -48.9491 -70.7865 54.6730 -54.7147 -29.9489 -0.0000 0.0000 -122.2410 -2.0478 15.6500 -0.5526 -7.1250 0.0000 -0.0000 -26.8846 43.8213 0.8473 0.0000 0.0000 0.0000 -45.6108 42.5332 -55.3390 -48.9842 52.5775 -25.3652 0.0000 -0.0000 -64.4977 9.1705 12.1658 1.9485 7.1250 -0.0000 -0.0000 24.6832 -18.1336 17.4774
2.8751 17.6248 0.4045 -228.8350 90.5376 -231.2910 0.0000 0.0000 0.0000 -15.8638 0.8651 1.2826 0.4675 4.3856 12.1640 0.4927 -3.4431 -12.5296 0.0295 -1.1090 -3.0487 0.0000 0.0000 0.0000 19.5228 2.3608 0.6858 -0.9428 -6.1844 17.3203 -1.0126 3.5197 -18.1658 -0.0910 1.9457 -5.3555 1.6614 -0.7084 3.0487 -0.7129 -0.8041 -5.3986 -1.6062 -0.4785 -7.3827 -4.3906 -5.5127 -8.9359 5.6163 -7.7308 17.9244 1.8511 -3.4295 7.3588 -0.0000 -0.0000 0.0000 64.4089 -48.7704 -70.4247 54.6788 -54.7167 -29.9536 -0.0000 0.0000 -122.1000 -2.1839 15.5410 -0.5854 -7.1250 0.0000 -0.0000 -26.9529 43.7086 0.9313 -0.0000 -0.0000 0.0000 -45.5598 42.4219 -55.1659 -49.0241 52.5942 -25.3968 0.0000 -0.0000 -64.5253 9.2066 12.1425 1.9526 7.1250 -0.0000 -0.0000 24.7095 -18.1542 17.4876
2.8715 17.6272 0.4046 -232.9720 90.5067 -235.4090 0.0000 0.0000 0.0000 -15.8433 0.9792 1.2189 0.4633 4.3658 12.1082 0.4827 -3.5242 -12.3919 0.0340 -1.1910 -3.2745 0.0000 0.0000 0.0000 19.5207 2.3440 0.6442 -0.9443 -6.1890 17.3338 -1.0098 3.4240 -18.1538 -0.0953 1.9914 -5.4818 1.6799 -0.6984 3.1301 -0.7349 -0.7900 -5.4017 -1.6403 -0.4740 -7.4335 -4.4035 -5.5422 -8.8984 5.6511 -7.7760 17.9199 1.8610 -3.4493 7.3551 -0.0000 0.0000 0.0000 64.5005 -48.6182 -70.2358 54.5764 -54.6824 -29.8700 -0.0000 0.0000 -121.9320 -2.3396 15.5569 -0.6278 -7.1250 0.0000 -0.0000 -27.0907 43.7053 0.9393 -0.0000 0.0000 0.0000 -45.5061 42.2689 -55.0207 -49.0165 52.5910 -25.3908 0.0000 -0.0000 -64.5553 9.3996 11.9296 1.9598 7.1250 -0.0000 -0.0000 24.8647 -18.3454 17.5040
2.8688 17.6277 0.4036 -239.4120 90.4652 -241.8290 0.0000 0.0000 0.0000 -15.8454 0.9838 1.1801 0.4621 4.3606 12.0934 0.4766 -3.5726 -12.3084 0.0351 -1.2089 -3.3237 0.0000 0.0000 0.0000 19.5056 2.2816 0.6144 -0.9428 -6.1843 17.3201 -1.0061 3.3474 -18.1309 -0.1043 2.0821 -5.7325 1.7015 -0.7093 3.1661 -0.7560 -0.8046 -5.3873 -1.6729 -0.4833 -7.4405 -4.3661 -5.5239 -8.8688 5.6820 -7.7601 17.8461 1.8676 -3.4386 7.3246 -0.0000 -0.0000 0.0000 64.5329 -48.4238 -69.9880 54.4488 -54.6394 -29.7659 -0.0000 0.0000 -121.9030 -2.4044 15.5757 -0.6460 -7.1250 0.0000 -0.0000 -27.1532 43.7149 0.9348 -0.0000 -0.0000 0.0000 -45.4940 42.1500 -54.9325 -49.0353 52.5989 -25.4058 0.0000 -0.0000 -64.5403 9.4132 11.8262 1.9460 7.1250 -0.0000 -0.0000 24.8902 -18.4401 17.4671
2.8669 17.6282 0.4050 -241.3980 90.4566 -243.7850 0.0000 0.0000 0.0000 -15.8402 0.9677 1.1414 0.4614 4.3570 12.0832 0.4750 -3.5963 -12.2862 0.0340 -1.1909 -3.2741 0.0000 0.0000 0.0000 19.5145 2.3084 0.5974 -0.9401 -6.1756 17.2948 -1.0112 3.3985 -18.1709 -0.0942 1.9797 -5.4494 1.7041 -0.6910 3.1808 -0.7783 -0.7816 -5.3758 -1.6999 -0.4729 -7.4362 -4.3066 -5.5255 -8.7970 5.7013 -7.7725 17.7408 1.8653 -3.4424 7.2766 0.0000 0.0000 0.0000 64.5989 -48.2605 -69.8094 54.2953 -54.5875 -29.6409 -0.0000 0.0000 -121.8650 -2.5066 15.6142 -0.6751 -7.1250 0.0000 -0.0000 -27.2556 43.7378 0.9222 0.0000 0.0000 0.0000 -45.4334 42.0829 -54.8507 -49.0377 52.6000 -25.4077 0.0000 -0.0000 -64.5260 9.4265 11.7506 1.9365 7.1250 -0.0000 -0.0000 24.9109 -18.5093 17.4419
2.8647 17.6283 0.4072 -246.4840 90.4805 -248.8620 0.0000 0.0000 0.0000 -15.7875 0.9602 1.1280 0.4602 4.3515 12.0676 0.4735 -3.6175 -12.2652 0.0334 -1.1796 -3.2430 0.0000 0.0000 0.0000 19.5718 2.3539 0.6077 -0.9384 -6.1703 17.2793 -1.0191 3.4384 -18.2381 -0.0837 1.8658 -5.1350 1.7201 -0.6636 3.1943 -0.7714 -0.7447 -5.3338 -1.7050 -0.4553 -7.3975 -4.2827 -5.5388 -8.7979 5.7069 -7.7928 17.6579 1.8614 -3.4522 7.2502 0.0000 0.0000 0.0000 64.7331 -48.1278 -69.8035 54.1282 -54.5306 -29.5047 -0.0000 0.0000 -121.7640 -2.7008 15.5834 -0.7260 -7.1250 0.0000 -0.0000 -27.4054 43.6885 0.9645 0.0000 0.0000 0.0000 -45.4177 41.9641 -54.7857 -49.0242 52.5943 -25.3969 0.0000 -0.0000 -64.5749 9.5019 11.6282 1.9322 7.1250 -0.0000 -0.0000 24.9784 -18.6197 17.4310
2.8624 17.6296 0.4074 -251.8520 90.4639 -254.2300 0.0000 0.0000 0.0000 -15.7891 0.9192 1.1079 0.4627 4.3634 12.1012 0.4760 -3.6333 -12.2974 0.0368 -1.2388 -3.4060 0.0000 0.0000 0.0000 19.5787 2.3634 0.6284 -0.9343 -6.1571 17.2411 -1.0201 3.3280 -18.2652 -0.0843 1.8730 -5.1547 1.7194 -0.6553 3.2221 -0.7846 -0.7360 -5.2819 -1.7191 -0.4513 -7.3577 -4.2052 -5.5485 -8.8667 5.6641 -7.8087 17.6295 1.8316 -3.4581 7.2492 -0.0000 -0.0000 0.0000 64.9013 -47.9606 -69.8255 53.9125 -54.4566 -29.3291 -0.0000 0.0000 -121.7580 -2.7341 15.5570 -0.7338 -7.1250 0.0000 -0.0000 -27.4221 43.6613 0.9853 -0.0000 -0.0000 0.0000 -45.4038 41.8473 -54.7528 -49.0341 52.5984 -25.4048 0.0000 -0.0000 -64.6677 9.5690 11.5965 1.9409 7.1250 -0.0000 -0.0000 25.0258 -18.6473 17.4545
